HIERARCHY
ROOT Hips
{
	OFFSET 0.000000 0.000000 0.000000
	CHANNELS 6 Xposition Yposition Zposition Zrotation Yrotation Xrotation 
	JOINT LHipJoint
	{
		OFFSET 0.000000 0.000000 0.000000
		CHANNELS 3 Zrotation Yrotation Xrotation
		JOINT LeftUpLeg
		{
			OFFSET 1.363060 -1.794630 0.839290
			CHANNELS 3 Zrotation Yrotation Xrotation
			JOINT LeftLeg
			{
				OFFSET 2.448110 -6.726130 0.000000
				CHANNELS 3 Zrotation Yrotation Xrotation
				JOINT LeftFoot
				{
					OFFSET 2.562200 -7.039590 0.000000
					CHANNELS 3 Zrotation Yrotation Xrotation
					JOINT LeftToeBase
					{
						OFFSET 0.157640 -0.433110 2.322550
						CHANNELS 3 Zrotation Yrotation Xrotation
						End Site
						{
							OFFSET 0.000000 0.000000 0.000000
						}
					}
				}
			}
		}
	}
	JOINT RHipJoint
	{
		OFFSET 0.000000 0.000000 0.000000
		CHANNELS 3 Zrotation Yrotation Xrotation
		JOINT RightUpLeg
		{
			OFFSET -1.305520 -1.794630 0.839290
			CHANNELS 3 Zrotation Yrotation Xrotation
			JOINT RightLeg
			{
				OFFSET -2.542530 -6.985550 0.000000
				CHANNELS 3 Zrotation Yrotation Xrotation
				JOINT RightFoot
				{
					OFFSET -2.568260 -7.056230 0.000000
					CHANNELS 3 Zrotation Yrotation Xrotation
					JOINT RightToeBase
					{
						OFFSET -0.164730 -0.452590 2.363150
						CHANNELS 3 Zrotation Yrotation Xrotation
						End Site
						{
							OFFSET 0.000000 0.000000 0.000000
						}
					}
				}
			}
		}
	}
	JOINT LowerBack
	{
		OFFSET 0.000000 0.000000 0.000000
		CHANNELS 3 Zrotation Yrotation Xrotation
		JOINT Spine
		{
			OFFSET 0.028270 2.035590 -0.193380
			CHANNELS 3 Zrotation Yrotation Xrotation
			JOINT Spine1
			{
				OFFSET 0.056720 2.048850 -0.042750
				CHANNELS 3 Zrotation Yrotation Xrotation
				JOINT Neck
				{
					OFFSET 0.000000 0.000000 0.000000
					CHANNELS 3 Zrotation Yrotation Xrotation
					JOINT Neck1
					{
						OFFSET -0.054170 1.746240 0.172020
						CHANNELS 3 Zrotation Yrotation Xrotation
						JOINT Head
						{
							OFFSET 0.104070 1.761360 -0.123970
							CHANNELS 3 Zrotation Yrotation Xrotation
							End Site
							{
								OFFSET 0.000000 0.000000 0.000000
							}
						}
					}
				}
				JOINT LeftShoulder
				{
					OFFSET 0.000000 0.000000 0.000000
					CHANNELS 3 Zrotation Yrotation Xrotation
					JOINT LeftArm
					{
						OFFSET 3.362410 1.200890 -0.311210
						CHANNELS 3 Zrotation Yrotation Xrotation
						JOINT LeftForeArm
						{
							OFFSET 4.983000 -0.000000 -0.000000
							CHANNELS 3 Zrotation Yrotation Xrotation
							JOINT LeftHand
							{
								OFFSET 3.483560 -0.000000 -0.000000
								CHANNELS 3 Zrotation Yrotation Xrotation
								JOINT LeftFingerBase
								{
									OFFSET 0.000000 0.000000 0.000000
									CHANNELS 3 Zrotation Yrotation Xrotation
									JOINT LeftHandIndex1
									{
										OFFSET 0.715260 -0.000000 -0.000000
										CHANNELS 3 Zrotation Yrotation Xrotation
										End Site
										{
											OFFSET 0.000000 0.000000 0.000000
										}
									}
								}
								JOINT LThumb
								{
									OFFSET 0.000000 0.000000 0.000000
									CHANNELS 3 Zrotation Yrotation Xrotation
									End Site
									{
										OFFSET 0.000000 0.000000 0.000000
									}
								}
							}
						}
					}
				}
				JOINT RightShoulder
				{
					OFFSET 0.000000 0.000000 0.000000
					CHANNELS 3 Zrotation Yrotation Xrotation
					JOINT RightArm
					{
						OFFSET -3.136600 1.374050 -0.404650
						CHANNELS 3 Zrotation Yrotation Xrotation
						JOINT RightForeArm
						{
							OFFSET -5.241900 -0.000000 -0.000000
							CHANNELS 3 Zrotation Yrotation Xrotation
							JOINT RightHand
							{
								OFFSET -3.444170 -0.000000 -0.000000
								CHANNELS 3 Zrotation Yrotation Xrotation
								JOINT RightFingerBase
								{
									OFFSET 0.000000 0.000000 0.000000
									CHANNELS 3 Zrotation Yrotation Xrotation
									JOINT RightHandIndex1
									{
										OFFSET -0.622530 -0.000000 -0.000000
										CHANNELS 3 Zrotation Yrotation Xrotation
										End Site
										{
											OFFSET 0.000000 0.000000 0.000000
										}
									}
								}
								JOINT RThumb
								{
									OFFSET 0.000000 0.000000 0.000000
									CHANNELS 3 Zrotation Yrotation Xrotation
									End Site
									{
										OFFSET 0.000000 0.000000 0.000000
									}
								}
							}
						}
					}
				}
			}
		}
	}
}
MOTION
Frames: 8
Frame Time: 0.008333
3.366725 16.612034 -2.002668 111.120258 -65.915577 -117.374576 -2.693299 -4.957124 -1.874599 -9.235861 -8.322221 -133.997686 1.989309 7.817046 85.595433 2.796656 12.030241 -13.718695 -0.784500 -0.000000 -36.905100 13.837604 4.374600 -5.546032 -13.303698 2.950335 -5.868148 -0.510925 -3.791943 42.264873 -2.057290 -7.903188 -18.387544 1.312400 -0.000000 -60.407901 -12.307257 -0.966279 11.091514 -2.587464 -0.478155 -1.488188 -3.859360 -0.386752 -3.069169 3.018643 -9.082412 -4.674285 -1.362214 -0.137939 0.647306 0.000000 0.000000 0.000000 4.120770 5.771971 -1.159353 -42.176671 39.773881 50.400877 -0.551403 -82.384584 -0.025378 -6.944172 -9.314374 0.578695 0.155248 0.019298 -0.000000 0.000000 0.000000 0.000000 0.000000 0.000000 0.000000 1.386443 -4.047171 -0.009484 68.122253 -10.271293 34.893646 0.752495 65.619999 -0.002782 -3.525759 5.593819 -0.180177 0.064626 -0.171886 0.000000 0.000000 0.000000 0.000000 0.000000 0.000000 0.000000 
3.383421 16.595278 -1.998778 111.304357 -66.091839 -117.466044 -2.767143 -4.942577 -1.499911 -8.113561 -7.805941 -131.737325 1.140741 7.281850 79.642660 3.057034 12.960087 -13.567034 -0.735900 -0.000000 -36.572200 13.875750 4.428353 -5.680761 -13.067821 3.179047 -5.945650 -0.500699 -3.862095 42.616287 -2.125819 -8.262981 -18.564308 1.387400 0.000000 -59.606300 -12.327009 -0.863225 10.993006 -2.586710 -0.357927 -1.501418 -3.862051 -0.265436 -3.044380 3.164316 -9.208394 -4.789527 -1.354034 -0.135505 0.615502 0.000000 0.000000 0.000000 4.432090 6.569117 -1.251891 -43.251692 40.796653 49.658541 -0.557129 -82.487501 -0.025185 -6.986635 -9.232677 0.576994 0.155251 0.018990 -0.000000 0.000000 0.000000 0.000000 0.000000 0.000000 0.000000 1.540589 -4.091164 -0.061456 68.139725 -10.848919 34.455258 0.756137 65.787393 -0.002804 -3.613298 5.605096 -0.184969 0.066486 -0.171421 0.000000 0.000000 0.000000 0.000000 0.000000 0.000000 0.000000 
3.403549 16.581416 -1.995761 111.443587 -66.345061 -117.465473 -2.855535 -4.903270 -1.042341 -6.841922 -7.300370 -129.130945 0.222222 6.625900 72.601836 3.288613 13.569893 -13.579437 -0.691700 0.000000 -36.465200 13.896506 4.485692 -5.844605 -12.736190 3.414937 -6.007450 -0.487459 -3.931658 42.903322 -2.208093 -8.695928 -18.703728 1.468400 0.000000 -58.734600 -12.301618 -0.760582 10.864965 -2.578856 -0.238052 -1.515942 -3.876258 -0.144752 -3.000976 3.320056 -9.371071 -4.922643 -1.350253 -0.133098 0.578668 0.000000 0.000000 0.000000 4.719370 7.437972 -1.337878 -44.259354 41.678059 48.941738 -0.556337 -82.704853 -0.025004 -7.031674 -9.183842 0.577689 0.155687 0.019931 -0.000000 0.000000 0.000000 0.000000 0.000000 0.000000 0.000000 1.730658 -4.173762 -0.117921 68.151017 -11.417687 33.996024 0.760820 65.950978 -0.002833 -3.715662 5.602739 -0.190159 0.068721 -0.170791 0.000000 0.000000 0.000000 0.000000 0.000000 0.000000 0.000000 
3.426581 16.571515 -1.994201 111.565078 -66.655202 -117.401424 -2.949564 -4.840669 -0.487715 -5.421534 -6.796203 -126.087692 -0.746757 5.800364 64.318835 3.465506 13.780617 -13.629541 -0.626400 0.000000 -36.717300 13.902780 4.549178 -6.037447 -12.327984 3.659702 -6.043619 -0.471874 -3.998944 43.104426 -2.299621 -9.177775 -18.791068 1.548500 0.000000 -57.824700 -12.242843 -0.658203 10.695758 -2.567701 -0.118927 -1.536508 -3.905773 -0.025520 -2.947653 3.488788 -9.559611 -5.057879 -1.354738 -0.131283 0.541221 0.000000 0.000000 0.000000 4.951659 8.339310 -1.426330 -45.172332 42.496456 48.227201 -0.549499 -83.052270 -0.024928 -7.103332 -9.163690 0.582377 0.156919 0.021710 -0.000000 0.000000 0.000000 0.000000 0.000000 0.000000 0.000000 1.975827 -4.285782 -0.177037 68.145170 -11.974274 33.543431 0.767542 66.104848 -0.002825 -3.813222 5.587608 -0.194649 0.071161 -0.169937 0.000000 0.000000 0.000000 0.000000 0.000000 0.000000 0.000000 
3.451842 16.566243 -1.995106 111.690854 -66.965559 -117.326954 -3.023324 -4.772072 0.163421 -3.858659 -6.247444 -122.432948 -1.726244 4.725790 54.608027 3.559073 13.605716 -13.469735 -0.487700 -0.000000 -37.349899 13.908762 4.627092 -6.262491 -11.914230 3.894317 -6.013463 -0.455407 -4.063604 43.189429 -2.387834 -9.642381 -18.808721 1.613500 0.000000 -56.947100 -12.196921 -0.551299 10.491519 -2.563859 0.003275 -1.561089 -3.949220 0.096435 -2.882051 3.675078 -9.778127 -5.188198 -1.368570 -0.130238 0.504655 0.000000 0.000000 0.000000 5.135339 9.274074 -1.522110 -46.002872 43.258877 47.507707 -0.537911 -83.495879 -0.024997 -7.196445 -9.178120 0.591156 0.158917 0.024123 -0.000000 0.000000 0.000000 0.000000 0.000000 0.000000 0.000000 2.290331 -4.434007 -0.240458 68.112158 -12.487009 33.147647 0.776143 66.233662 -0.002754 -3.893774 5.564755 -0.197938 0.073614 -0.168802 0.000000 0.000000 0.000000 0.000000 0.000000 0.000000 0.000000 
3.478203 16.566289 -1.999205 111.914780 -67.176854 -117.404132 -3.030388 -4.751197 0.870037 -2.122433 -5.523257 -117.878817 -2.612807 3.301610 43.311163 3.542757 13.224240 -12.707263 -0.202300 0.000001 -38.346700 13.929690 4.724979 -6.514540 -11.583073 4.139517 -5.833514 -0.442152 -4.126144 43.122974 -2.459872 -10.021220 -18.738010 1.647701 -0.000000 -56.199099 -12.234412 -0.422127 10.283288 -2.585228 0.144513 -1.583886 -4.006456 0.237636 -2.811001 3.884206 -10.018278 -5.301302 -1.393244 -0.130240 0.471603 0.000000 0.000000 0.000000 5.265192 10.227302 -1.631603 -46.761238 44.021282 46.745456 -0.523688 -84.010040 -0.025289 -7.321287 -9.225608 0.604722 0.161814 0.026604 -0.000000 0.000000 0.000000 0.000000 0.000000 0.000000 0.000000 2.689016 -4.602497 -0.307729 68.041637 -12.942503 32.844122 0.786502 66.331589 -0.002604 -3.939824 5.538701 -0.199428 0.075772 -0.167466 0.000000 0.000000 0.000000 0.000000 0.000000 0.000000 0.000000 
3.503945 16.571754 -2.006459 112.411814 -67.150458 -117.949663 -2.912919 -4.880829 1.496591 -0.104409 -4.408960 -112.036223 -3.179290 1.504118 30.547101 3.412631 13.038973 -10.891175 0.301500 -0.000001 -39.440300 13.975987 4.835727 -6.770417 -11.416177 4.454079 -5.351338 -0.437278 -4.187707 42.863097 -2.502764 -10.243608 -18.562806 1.636501 0.000000 -55.673499 -12.434745 -0.236448 10.155358 -2.653514 0.336536 -1.584538 -4.072999 0.431319 -2.740203 4.112693 -10.274562 -5.388151 -1.427254 -0.131251 0.443261 0.000000 0.000000 0.000000 5.345122 11.209144 -1.759396 -47.480925 44.813363 45.906680 -0.509491 -84.547036 -0.025895 -7.477743 -9.304426 0.623074 0.165632 0.028580 -0.000000 0.000000 0.000000 0.000000 0.000000 0.000000 0.000000 3.165985 -4.767661 -0.379287 67.924061 -13.320871 32.673146 0.797726 66.394070 -0.002380 -3.938533 5.515372 -0.198520 0.077274 -0.166098 0.000000 0.000000 0.000000 0.000000 0.000000 0.000000 0.000000 
3.526279 16.582375 -2.014283 113.486983 -66.775607 -119.476656 -2.668544 -5.262646 1.795791 2.346780 -2.730492 -104.692255 -3.142450 -0.374995 17.232379 3.205590 13.500903 -7.792308 1.080100 0.000000 -40.036000 14.040718 4.921644 -6.976592 -11.386298 4.969256 -4.358360 -0.439914 -4.250519 42.362803 -2.512437 -10.281339 -18.275200 1.575500 0.000000 -55.408900 -12.806566 0.054734 10.240153 -2.774789 0.626519 -1.530647 -4.140197 0.726357 -2.680270 4.334517 -10.534735 -5.439299 -1.465459 -0.132962 0.420962 0.000000 0.000000 0.000000 5.357006 12.247431 -1.911338 -48.205266 45.668444 44.963362 -0.498181 -85.057597 -0.026866 -7.665449 -9.409325 0.646108 0.170339 0.029601 -0.000000 0.000000 0.000000 0.000000 0.000000 0.000000 0.000000 3.672280 -4.887388 -0.455361 67.742968 -13.615826 32.671853 0.808546 66.425908 -0.002104 -3.879498 5.500087 -0.195120 0.077722 -0.164880 0.000000 0.000000 0.000000 0.000000 0.000000 0.000000 0.000000 
